<?xml version="1.0" standalone="no"?>
<!DOCTYPE svg PUBLIC "-//W3C//DTD SVG 20010904//EN"
 "http://www.w3.org/TR/2001/REC-SVG-20010904/DTD/svg10.dtd">
<svg version="1.0" xmlns="http://www.w3.org/2000/svg"
 width="128.000000pt" height="128.000000pt" viewBox="0 0 128.000000 128.000000"
 preserveAspectRatio="xMidYMid meet">

<g transform="translate(0.000000,128.000000) scale(0.100000,-0.100000)"
fill="#000000" stroke="none">
<path d="M630 1150 c0 -40 4 -70 10 -70 6 0 10 30 10 70 0 40 -4 70 -10 70 -6
0 -10 -30 -10 -70z"/>
<path d="M260 1057 c0 -16 82 -97 98 -97 21 0 13 15 -36 63 -50 49 -62 56 -62
34z"/>
<path d="M957 1022 c-49 -50 -56 -62 -34 -62 16 0 97 82 97 98 0 21 -15 13
-63 -36z"/>
<path d="M560 991 c-138 -45 -224 -159 -224 -296 0 -92 24 -145 107 -232 48
-52 66 -80 76 -116 l12 -48 47 3 47 3 3 148 c2 140 2 147 -17 147 -25 0 -37
-18 -17 -26 24 -9 19 -26 -6 -22 -18 2 -23 10 -23 33 l0 30 75 0 75 0 0 -30
c0 -23 -5 -31 -22 -33 -26 -4 -31 13 -7 22 20 8 8 26 -17 26 -19 0 -19 -7 -17
-147 l3 -148 46 -3 46 -3 12 46 c9 34 29 64 80 120 78 83 102 139 102 230 0
116 -58 213 -162 269 -41 23 -68 30 -123 32 -39 2 -82 0 -96 -5z m-25 -60 c6
-11 -29 -33 -39 -24 -7 7 12 33 25 33 4 0 10 -4 14 -9z m-65 -50 c0 -4 -8 -19
-19 -32 -31 -41 -53 -90 -60 -138 -3 -25 -11 -45 -16 -43 -12 4 -9 65 5 108
20 59 90 141 90 105z"/>
<path d="M107 694 c-16 -16 9 -24 74 -24 55 0 69 3 69 15 0 12 -14 15 -68 15
-38 0 -72 -3 -75 -6z"/>
<path d="M1030 685 c0 -13 12 -15 73 -13 39 2 72 8 72 13 0 6 -33 11 -72 13
-61 2 -73 0 -73 -13z"/>
<path d="M302 367 c-39 -40 -53 -67 -34 -67 10 0 102 93 102 103 0 19 -30 3
-68 -36z"/>
<path d="M910 402 c0 -10 93 -102 103 -102 18 0 3 28 -35 67 -39 39 -68 55
-68 35z"/>
<path d="M492 263 c3 -16 18 -18 148 -18 130 0 145 2 148 18 3 16 -9 17 -148
17 -139 0 -151 -1 -148 -17z"/>
<path d="M520 165 l0 -55 120 0 120 0 0 55 0 55 -120 0 -120 0 0 -55z"/>
<path d="M490 76 c0 -22 24 -26 150 -26 126 0 150 4 150 26 0 11 -28 14 -150
14 -122 0 -150 -3 -150 -14z"/>
</g>
</svg>
