<?xml version="1.0" standalone="no"?>
<!DOCTYPE svg PUBLIC "-//W3C//DTD SVG 20010904//EN"
 "http://www.w3.org/TR/2001/REC-SVG-20010904/DTD/svg10.dtd">
<svg version="1.0" xmlns="http://www.w3.org/2000/svg"
 width="128.000000pt" height="128.000000pt" viewBox="0 0 128.000000 128.000000"
 preserveAspectRatio="xMidYMid meet">

<g transform="translate(0.000000,128.000000) scale(0.100000,-0.100000)"
fill="#000000" stroke="none">
<path d="M505 1196 c-38 -17 -90 -72 -104 -109 -16 -43 -14 -231 3 -272 24
-58 63 -100 118 -130 131 -72 294 -12 354 130 17 41 19 229 3 272 -14 38 -67
92 -106 109 -43 18 -227 18 -268 0z"/>
<path d="M137 722 c-37 -37 -67 -74 -67 -83 0 -8 31 -45 69 -83 61 -61 71 -67
90 -57 32 18 25 51 -21 98 l-42 43 42 43 c45 46 53 80 23 97 -11 5 -21 10 -23
10 -2 0 -34 -30 -71 -68z"/>
<path d="M1048 779 c-29 -17 -21 -51 24 -96 l42 -43 -42 -43 c-46 -47 -53 -80
-21 -98 19 -10 29 -4 90 57 38 38 69 75 69 84 0 14 -128 150 -140 150 -3 0
-13 -5 -22 -11z"/>
<path d="M493 621 c-57 -15 -124 -61 -153 -108 -31 -48 -83 -241 -82 -305 1
-49 24 -92 65 -117 33 -20 47 -21 317 -21 270 0 284 1 317 21 41 25 64 68 65
117 0 20 -12 88 -27 150 -33 139 -66 192 -145 236 -53 30 -60 31 -190 33 -74
1 -149 -2 -167 -6z"/>
</g>
</svg>
