<?xml version="1.0" standalone="no"?>
<!DOCTYPE svg PUBLIC "-//W3C//DTD SVG 20010904//EN"
 "http://www.w3.org/TR/2001/REC-SVG-20010904/DTD/svg10.dtd">
<svg version="1.0" xmlns="http://www.w3.org/2000/svg"
 width="128.000000pt" height="128.000000pt" viewBox="0 0 128.000000 128.000000"
 preserveAspectRatio="xMidYMid meet">

<g transform="translate(0.000000,128.000000) scale(0.100000,-0.100000)"
fill="#000000" stroke="none">
<path d="M357 1193 c-4 -3 -7 -39 -7 -80 l0 -73 -29 0 c-41 0 -72 -29 -80 -76
l-6 -39 -78 -3 c-102 -4 -100 -22 3 -22 l80 0 0 -55 0 -55 -81 0 c-60 0 -80
-3 -77 -12 3 -9 31 -14 81 -16 l77 -3 0 -54 0 -55 -80 0 c-47 0 -80 -4 -80
-10 0 -6 33 -10 80 -10 l81 0 -3 -57 -3 -58 -77 -3 c-103 -4 -101 -22 2 -22
l80 0 0 -55 0 -55 -81 0 c-60 0 -80 -3 -77 -12 3 -9 31 -14 81 -16 l77 -3 0
-30 c0 -40 39 -79 79 -79 l30 0 3 -77 c2 -50 7 -78 16 -81 9 -3 12 17 12 77
l0 81 55 0 55 0 0 -81 c0 -60 3 -80 13 -77 8 3 13 31 15 81 l3 77 54 0 55 0 0
-80 c0 -47 4 -80 10 -80 6 0 10 33 10 80 l0 80 55 0 54 0 3 -77 c2 -50 7 -78
16 -81 9 -3 12 17 12 77 l0 81 55 0 55 0 0 -81 c0 -60 3 -80 13 -77 8 3 13 31
15 81 l3 77 30 0 c40 0 79 39 79 79 l0 30 77 3 c50 2 78 7 81 16 3 9 -17 12
-77 12 l-81 0 0 55 0 55 80 0 c103 0 105 18 3 22 l-78 3 -3 58 -3 57 81 0 c47
0 80 4 80 10 0 6 -33 10 -80 10 l-80 0 0 55 0 54 77 3 c50 2 78 7 81 16 3 9
-17 12 -77 12 l-81 0 0 55 0 55 80 0 c103 0 105 18 3 22 l-78 3 -6 39 c-8 46
-39 76 -80 76 l-28 0 -3 77 c-2 50 -7 78 -15 81 -10 3 -13 -17 -13 -77 l0 -81
-55 0 -55 0 0 81 c0 60 -3 80 -12 77 -9 -3 -14 -31 -16 -81 l-3 -77 -54 0 -55
0 0 80 c0 47 -4 80 -10 80 -6 0 -10 -33 -10 -80 l0 -80 -55 0 -54 0 -3 77 c-2
50 -7 78 -15 81 -10 3 -13 -17 -13 -77 l0 -81 -55 0 -55 0 0 80 c0 73 -6 91
-23 73z m-27 -238 c0 -8 -4 -15 -10 -15 -5 0 -10 7 -10 15 0 8 5 15 10 15 6 0
10 -7 10 -15z m0 -131 c0 -43 -4 -74 -10 -74 -6 0 -10 34 -10 81 0 51 4 78 10
74 6 -3 10 -40 10 -81z m534 40 c24 -24 24 -419 -1 -446 -15 -16 -35 -18 -224
-18 -175 0 -210 2 -223 16 -14 13 -16 48 -16 228 0 151 3 215 12 224 9 9 73
12 224 12 180 0 215 -2 228 -16z"/>
<path d="M432 848 c-17 -17 -17 -399 0 -416 9 -9 68 -12 204 -12 162 0 195 3
208 16 13 13 16 46 16 208 0 136 -3 195 -12 204 -17 17 -399 17 -416 0z"/>
</g>
</svg>
