<?xml version="1.0" standalone="no"?>
<!DOCTYPE svg PUBLIC "-//W3C//DTD SVG 20010904//EN"
 "http://www.w3.org/TR/2001/REC-SVG-20010904/DTD/svg10.dtd">
<svg version="1.0" xmlns="http://www.w3.org/2000/svg"
 width="128.000000pt" height="128.000000pt" viewBox="0 0 128.000000 128.000000"
 preserveAspectRatio="xMidYMid meet">

<g transform="translate(0.000000,128.000000) scale(0.100000,-0.100000)"
fill="#000000" stroke="none">
<path d="M120 1010 c-19 -19 -20 -33 -20 -370 0 -337 1 -351 20 -370 19 -19
33 -20 523 -20 475 0 505 1 520 18 15 17 17 57 17 374 0 331 -1 356 -18 371
-17 15 -67 17 -520 17 -489 0 -503 -1 -522 -20z m1018 -22 c17 -17 17 -679 0
-696 -9 -9 -131 -12 -489 -12 -263 0 -484 3 -493 6 -14 5 -16 46 -16 354 0
269 3 349 13 353 6 3 228 6 492 6 362 1 484 -2 493 -11z"/>
<path d="M160 700 c0 -148 4 -270 8 -270 5 0 19 12 33 26 13 14 54 53 92 86
l67 60 64 -56 c35 -31 67 -56 71 -56 4 0 86 76 183 170 97 94 181 170 187 170
5 0 41 -35 79 -77 38 -43 93 -104 123 -136 l53 -58 0 205 0 206 -480 0 -480 0
0 -270z m60 215 c0 -8 -7 -15 -15 -15 -8 0 -15 7 -15 15 0 8 7 15 15 15 8 0
15 -7 15 -15z m0 -141 c0 -68 -3 -84 -15 -84 -12 0 -15 16 -15 83 0 46 3 87 6
90 17 16 24 -11 24 -89z m340 76 c21 -21 26 -69 10 -100 -5 -10 -24 -23 -41
-29 -84 -29 -142 83 -72 137 26 19 80 15 103 -8z"/>
<path d="M467 832 c-22 -24 -21 -55 1 -75 24 -22 55 -21 75 1 22 25 21 48 -3
72 -25 25 -52 26 -73 2z"/>
<path d="M688 636 c-93 -90 -168 -166 -168 -169 0 -2 40 -39 89 -81 l89 -76
211 0 211 0 0 106 0 105 -127 140 c-69 76 -129 139 -132 139 -3 -1 -81 -75
-173 -164z"/>
<path d="M257 476 c-90 -84 -97 -94 -97 -128 l0 -38 245 0 c135 0 245 2 245 4
0 5 -268 238 -285 248 -5 3 -54 -35 -108 -86z"/>
</g>
</svg>
